<?xml version="1.0" encoding="utf-8"?>
<!-- Generator: Adobe Illustrator 27.4.1, SVG Export Plug-In . SVG Version: 6.00 Build 0)  -->
<svg version="1.1" id="图层_1" xmlns="http://www.w3.org/2000/svg" xmlns:xlink="http://www.w3.org/1999/xlink" x="0px" y="0px"
	 viewBox="0 0 188.08 202.87" style="enable-background:new 0 0 188.08 202.87;" xml:space="preserve">
<style type="text/css">
	.st0{fill:none;stroke:#3273BA;stroke-width:18.6212;stroke-linecap:round;stroke-linejoin:round;stroke-miterlimit:10;}
	.st1{fill:none;stroke:#3273BA;stroke-width:0.9826;stroke-miterlimit:10;}
	.st2{fill:#3273BA;stroke:#3273BA;stroke-width:0.5766;stroke-miterlimit:10;}
	.st3{fill:#3273BA;stroke:#3273BA;stroke-width:0.9826;stroke-miterlimit:10;}
	.st4{fill:none;stroke:#3273BA;stroke-width:3;stroke-linecap:round;stroke-linejoin:round;stroke-miterlimit:10;}
</style>
<path class="st0" d="M91.72,9.31v17.64c-0.81,2.04-2.49,7.49-5.88,10.78c-3.72,3.61-9.63,5.19-11.76,5.88c-8.17,0-13.39,0-21.56,0
	c-5.51,2.54-9.65,8.22-8.82,13.72c1.01,6.73,9.4,8.65,9.8,8.82c27.12,0,49.33,0,76.44,0c4.37,2.31,8.03,6.9,7.84,11.76
	c-0.17,4.53-3.78,8.65-7.84,10.78c-38.55,0-74.16,0.98-112.71,0.98c-5.29,2.16-8.47,7.45-7.84,12.74c0.52,4.36,3.57,9.11,7.84,10.78
	c32.67,0,63.38,0,96.05,0c0.7,0.7,7.77,5.04,6.86,12.74c-0.64,5.36-5.79,8.75-6.86,9.8c-26.46,0-49,0-75.46,0
	c-4.89,1.88-8.05,6.64-7.84,11.76c0.19,4.78,3.29,10.02,7.84,11.76c12.41,0,22.87,0,35.28,0c2.14,0.71,5.47,1.13,8.82,3.92
	c2.93,2.44,4.78,5.03,5.88,6.86c0,7.84,0,15.68,0,23.52"/>
<path class="st1" d="M131.92,34.42c-11.31-3.48-17.55,2.19-17.87,5.85c-0.31,3.45,6.13,6.07,8.59,7.4c0,0,0.15,0.08,0.33,0.17
	c5.87,3.12,22.12,10.6,25.52,6.18C151.35,50.29,146.02,38.76,131.92,34.42z"/>
<path class="st1" d="M122.9,47.95c-5.8,5.1-7.63,7.93-8.83,11c-1.24,3.2-2.15,5.77-0.87,8.47c1.58,3.34,5.95,4.94,9.46,4.53
	c4.48-0.52,6.86-3.42,8.99-6.51c3.76-5.44,3.56-7.45,4.49-12.02"/>
<path class="st2" d="M122.03,41.62c-1.92-0.58-4.11,0.8-4.19,1.98c-0.13,1.89,5.01,4.4,6.25,3.27
	C125,46.02,124.56,42.38,122.03,41.62z"/>
<path class="st3" d="M139.89,46.5c-1.61-0.36-3.96,2.04-3.37,3.83c0.41,1.25,2.27,2.27,3.71,1.57c1.24-0.6,1.55-2.18,1.32-3.28
	C141.39,47.84,140.83,46.72,139.89,46.5z"/>
<path class="st3" d="M131.12,36.63c-1.61-0.36-3.77,2.72-3.18,4.51c0.41,1.25,3.82,2.59,5.26,1.88c1.24-0.6,1.37-2.86,1.13-3.96
	C134.16,38.28,132.06,36.84,131.12,36.63z"/>
<line class="st4" x1="158.58" y1="50.76" x2="165.58" y2="33.76"/>
<line class="st4" x1="172.58" y1="63.76" x2="186.58" y2="56.76"/>
<line class="st4" x1="172.58" y1="80.76" x2="186.58" y2="88.76"/>
</svg>
